<svg width="16" height="16" viewBox="0 0 16 16" fill="none" xmlns="http://www.w3.org/2000/svg">
<path fill-rule="evenodd" clip-rule="evenodd" d="M8.00008 3.33333C7.63189 3.33333 7.33341 3.63181 7.33341 4C7.33341 4.36819 7.63189 4.66667 8.00008 4.66667C8.36827 4.66667 8.66675 4.36819 8.66675 4C8.66675 3.63181 8.36827 3.33333 8.00008 3.33333ZM6.00008 4C6.00008 2.89543 6.89551 2 8.00008 2C9.10465 2 10.0001 2.89543 10.0001 4C10.0001 5.10457 9.10465 6 8.00008 6C6.89551 6 6.00008 5.10457 6.00008 4ZM2.66675 8C2.66675 7.63181 2.96522 7.33333 3.33341 7.33333H12.6667C13.0349 7.33333 13.3334 7.63181 13.3334 8C13.3334 8.36819 13.0349 8.66667 12.6667 8.66667H3.33341C2.96522 8.66667 2.66675 8.36819 2.66675 8ZM8.00008 11.3333C7.63189 11.3333 7.33341 11.6318 7.33341 12C7.33341 12.3682 7.63189 12.6667 8.00008 12.6667C8.36827 12.6667 8.66675 12.3682 8.66675 12C8.66675 11.6318 8.36827 11.3333 8.00008 11.3333ZM6.00008 12C6.00008 10.8954 6.89551 10 8.00008 10C9.10465 10 10.0001 10.8954 10.0001 12C10.0001 13.1046 9.10465 14 8.00008 14C6.89551 14 6.00008 13.1046 6.00008 12Z" fill="#B6BAC3"/>
</svg>
