<svg width="24" height="24" viewBox="0 0 24 24" fill="none" xmlns="http://www.w3.org/2000/svg">
<path d="M21 17C21 16.7348 20.8946 16.4805 20.707 16.293C20.5195 16.1054 20.2652 16 20 16H18C17.7348 16 17.4805 16.1054 17.293 16.293C17.1054 16.4805 17 16.7348 17 17V18L17.1025 18.0049C17.6067 18.0562 18 18.4823 18 19V21C18 21.5523 17.5523 22 17 22C16.4477 22 16 21.5523 16 21V19.7295C15.8503 19.643 15.7103 19.5384 15.5859 19.4141C15.2109 19.039 15 18.5304 15 18V17C15 16.2043 15.3163 15.4415 15.8789 14.8789C16.4415 14.3163 17.2043 14 18 14H20C20.7957 14 21.5585 14.3163 22.1211 14.8789C22.6837 15.4415 23 16.2043 23 17V18C23 18.5304 22.7891 19.039 22.4141 19.4141C22.039 19.7891 21.5304 20 21 20C20.4477 20 20 19.5523 20 19C20 18.4477 20.4477 18 21 18V17Z" fill="#14181F"/>
<path d="M18 15V6.5C18 5.83696 17.7364 5.20126 17.2676 4.73242C16.7987 4.26358 16.163 4 15.5 4C14.837 4 14.2013 4.26358 13.7324 4.73242C13.2636 5.20126 13 5.83696 13 6.5V17.5C13 18.6935 12.5256 19.8377 11.6816 20.6816C10.8904 21.4729 9.83506 21.9391 8.72266 21.9941L8.5 22C7.30653 22 6.16227 21.5256 5.31836 20.6816C4.47445 19.8377 4 18.6935 4 17.5V9C4 8.44772 4.44772 8 5 8C5.55228 8 6 8.44772 6 9V17.5C6 18.163 6.26358 18.7987 6.73242 19.2676C7.20126 19.7364 7.83696 20 8.5 20L8.74707 19.9873C9.31937 19.9305 9.85735 19.6778 10.2676 19.2676C10.7364 18.7987 11 18.163 11 17.5V6.5C11 5.30653 11.4744 4.16227 12.3184 3.31836C13.1623 2.47445 14.3065 2 15.5 2C16.6935 2 17.8377 2.47445 18.6816 3.31836C19.5256 4.16227 20 5.30653 20 6.5V15C20 15.5523 19.5523 16 19 16C18.4477 16 18 15.5523 18 15Z" fill="#14181F"/>
<path d="M20 21V20H17C16.4477 20 16 19.5523 16 19C16 18.4477 16.4477 18 17 18H21L21.1025 18.0049C21.6067 18.0562 22 18.4823 22 19V21C22 21.5523 21.5523 22 21 22C20.4477 22 20 21.5523 20 21Z" fill="#14181F"/>
<path d="M6 3C6 2.44772 6.44772 2 7 2C7.55228 2 8 2.44772 8 3V5L7.99512 5.10254C7.94379 5.60667 7.51768 6 7 6H3C2.44772 6 2 5.55228 2 5C2 4.44772 2.44772 4 3 4H6V3Z" fill="#14181F"/>
<path d="M1 7V6C1 5.46957 1.21086 4.96101 1.58594 4.58594C1.71042 4.46145 1.85017 4.35611 2 4.26953V3C2 2.44772 2.44772 2 3 2C3.55228 2 4 2.44772 4 3V5C4 5.26522 3.89457 5.51949 3.70703 5.70703C3.54289 5.87117 3.32763 5.97243 3.09863 5.99512L3 6V7L3.00488 7.09863C3.02757 7.32763 3.12883 7.54289 3.29297 7.70703C3.48051 7.89457 3.73478 8 4 8H6C6.26522 8 6.51949 7.89457 6.70703 7.70703C6.87117 7.54289 6.97243 7.32763 6.99512 7.09863L7 7V6C6.44772 6 6 5.55228 6 5C6 4.44772 6.44772 4 7 4C7.53043 4 8.03899 4.21087 8.41406 4.58594C8.78913 4.96101 9 5.46957 9 6V7L8.98535 7.29688C8.91709 7.98351 8.61329 8.6289 8.12109 9.12109C7.55849 9.6837 6.79565 10 6 10H4C3.20435 10 2.44151 9.6837 1.87891 9.12109C1.38671 8.6289 1.08291 7.98351 1.01465 7.29688L1 7Z" fill="#14181F"/>
</svg>
