<svg width="16" height="16" viewBox="0 0 16 16" fill="none" xmlns="http://www.w3.org/2000/svg">
<g clip-path="url(#clip0_22110_9070)">
<path fill-rule="evenodd" clip-rule="evenodd" d="M7.33341 6.66675C6.96522 6.66675 6.66675 6.96522 6.66675 7.33341V13.3334C6.66675 13.7016 6.96522 14.0001 7.33341 14.0001H13.3334C13.7016 14.0001 14.0001 13.7016 14.0001 13.3334V7.33341C14.0001 6.96522 13.7016 6.66675 13.3334 6.66675H7.33341ZM5.33341 7.33341C5.33341 6.22885 6.22885 5.33341 7.33341 5.33341H13.3334C14.438 5.33341 15.3334 6.22885 15.3334 7.33341V13.3334C15.3334 14.438 14.438 15.3334 13.3334 15.3334H7.33341C6.22885 15.3334 5.33341 14.438 5.33341 13.3334V7.33341Z" fill="#B6BAC3"/>
<path fill-rule="evenodd" clip-rule="evenodd" d="M6.00008 1.33341C6.00008 0.965225 6.29856 0.666748 6.66675 0.666748H8.66675C9.77132 0.666748 10.6667 1.56218 10.6667 2.66675V3.33341C10.6667 3.7016 10.3683 4.00008 10.0001 4.00008C9.63189 4.00008 9.33341 3.7016 9.33341 3.33341V2.66675C9.33341 2.29856 9.03494 2.00008 8.66675 2.00008H6.66675C6.29856 2.00008 6.00008 1.7016 6.00008 1.33341Z" fill="#B6BAC3"/>
<path fill-rule="evenodd" clip-rule="evenodd" d="M1.33341 6.00008C0.965225 6.00008 0.666748 6.29856 0.666748 6.66675L0.666748 8.66675C0.666748 9.77132 1.56218 10.6667 2.66675 10.6667H3.33341C3.7016 10.6667 4.00008 10.3683 4.00008 10.0001C4.00008 9.63189 3.7016 9.33341 3.33341 9.33341H2.66675C2.29856 9.33341 2.00008 9.03494 2.00008 8.66675L2.00008 6.66675C2.00008 6.29856 1.7016 6.00008 1.33341 6.00008Z" fill="#B6BAC3"/>
<path d="M0.86201 0.86201C1.12236 0.601661 1.54447 0.601661 1.80482 0.86201L3.00008 2.05727L4.19534 0.86201C4.45569 0.601661 4.8778 0.601661 5.13815 0.86201C5.3985 1.12236 5.3985 1.54447 5.13815 1.80482L3.94289 3.00008L5.13815 4.19534C5.3985 4.45569 5.3985 4.8778 5.13815 5.13815C4.8778 5.3985 4.45569 5.3985 4.19534 5.13815L3.00008 3.94289L1.80482 5.13815C1.54447 5.3985 1.12236 5.3985 0.86201 5.13815C0.601661 4.8778 0.601661 4.45569 0.86201 4.19534L2.05727 3.00008L0.86201 1.80482C0.601661 1.54447 0.601661 1.12236 0.86201 0.86201Z" fill="#B6BAC3"/>
</g>
<defs>
<clipPath id="clip0_22110_9070">
<rect width="16" height="16" fill="white"/>
</clipPath>
</defs>
</svg>
