<svg width="24" height="24" viewBox="0 0 24 24" fill="none" xmlns="http://www.w3.org/2000/svg">
<path d="M3 7V13H21V7H3ZM23 13C23 14.1046 22.1046 15 21 15H3C1.89543 15 1 14.1046 1 13V7C1 5.89543 1.89543 5 3 5H21C22.1046 5 23 5.89543 23 7V13Z" fill="#F1F2F6"/>
<path d="M16 21V14C16 13.4477 16.4477 13 17 13C17.5523 13 18 13.4477 18 14V21C18 21.5523 17.5523 22 17 22C16.4477 22 16 21.5523 16 21Z" fill="#F1F2F6"/>
<path d="M6 21V14C6 13.4477 6.44772 13 7 13C7.55228 13 8 13.4477 8 14V21C8 21.5523 7.55228 22 7 22C6.44772 22 6 21.5523 6 21Z" fill="#F1F2F6"/>
<path d="M16 6V3C16 2.44772 16.4477 2 17 2C17.5523 2 18 2.44772 18 3V6C18 6.55228 17.5523 7 17 7C16.4477 7 16 6.55228 16 6Z" fill="#F1F2F6"/>
<path d="M6 6V3C6 2.44772 6.44772 2 7 2C7.55228 2 8 2.44772 8 3V6C8 6.55228 7.55228 7 7 7C6.44772 7 6 6.55228 6 6Z" fill="#F1F2F6"/>
<path d="M1.59297 5.59297C1.98349 5.20244 2.61651 5.20244 3.00703 5.59297L10.7072 13.2932L10.7756 13.3684C11.0963 13.7611 11.0735 14.341 10.7072 14.7072C10.341 15.0735 9.76114 15.0963 9.36836 14.7756L9.29316 14.7072L1.59297 7.00703C1.20244 6.61651 1.20244 5.98349 1.59297 5.59297Z" fill="#F1F2F6"/>
<path d="M13.293 5.29297C13.6835 4.90244 14.3165 4.90244 14.707 5.29297L22.4072 12.9932L22.4756 13.0684C22.7963 13.4611 22.7735 14.041 22.4072 14.4072C22.041 14.7735 21.4611 14.7963 21.0684 14.4756L20.9932 14.4072L13.293 6.70703C12.9024 6.31651 12.9024 5.68349 13.293 5.29297Z" fill="#F1F2F6"/>
<path d="M7.29297 5.29297C7.68349 4.90244 8.31651 4.90244 8.70703 5.29297L16.707 13.293L16.7754 13.3691C17.0957 13.7619 17.0731 14.3409 16.707 14.707C16.3409 15.0731 15.7619 15.0957 15.3691 14.7754L15.293 14.707L7.29297 6.70703C6.90244 6.31651 6.90244 5.68349 7.29297 5.29297Z" fill="#F1F2F6"/>
</svg>
