<svg width="16" height="16" viewBox="0 0 16 16" fill="none" xmlns="http://www.w3.org/2000/svg">
<path fill-rule="evenodd" clip-rule="evenodd" d="M2.66667 1.33203C3.03486 1.33203 3.33333 1.63051 3.33333 1.9987V6.66536C3.33333 7.03355 3.03486 7.33203 2.66667 7.33203C2.29848 7.33203 2 7.03355 2 6.66536V1.9987C2 1.63051 2.29848 1.33203 2.66667 1.33203ZM8 1.33203C8.36819 1.33203 8.66667 1.63051 8.66667 1.9987V4.66536H10C10.3682 4.66536 10.6667 4.96384 10.6667 5.33203C10.6667 5.70022 10.3682 5.9987 10 5.9987H6C5.63181 5.9987 5.33333 5.70022 5.33333 5.33203C5.33333 4.96384 5.63181 4.66536 6 4.66536H7.33333V1.9987C7.33333 1.63051 7.63181 1.33203 8 1.33203ZM13.3333 1.33203C13.7015 1.33203 14 1.63051 14 1.9987V7.9987C14 8.36689 13.7015 8.66536 13.3333 8.66536C12.9651 8.66536 12.6667 8.36689 12.6667 7.9987V1.9987C12.6667 1.63051 12.9651 1.33203 13.3333 1.33203ZM8 7.33203C8.36819 7.33203 8.66667 7.63051 8.66667 7.9987V13.9987C8.66667 14.3669 8.36819 14.6654 8 14.6654C7.63181 14.6654 7.33333 14.3669 7.33333 13.9987V7.9987C7.33333 7.63051 7.63181 7.33203 8 7.33203ZM0 9.33203C0 8.96384 0.298477 8.66536 0.666667 8.66536H4.66667C5.03486 8.66536 5.33333 8.96384 5.33333 9.33203C5.33333 9.70022 5.03486 9.9987 4.66667 9.9987H3.33333V13.9987C3.33333 14.3669 3.03486 14.6654 2.66667 14.6654C2.29848 14.6654 2 14.3669 2 13.9987V9.9987H0.666667C0.298477 9.9987 0 9.70022 0 9.33203ZM10.6667 10.6654C10.6667 10.2972 10.9651 9.9987 11.3333 9.9987H15.3333C15.7015 9.9987 16 10.2972 16 10.6654C16 11.0336 15.7015 11.332 15.3333 11.332H14V13.9987C14 14.3669 13.7015 14.6654 13.3333 14.6654C12.9651 14.6654 12.6667 14.3669 12.6667 13.9987V11.332H11.3333C10.9651 11.332 10.6667 11.0336 10.6667 10.6654Z" fill="#EFF1F5"/>
</svg>
