<svg width="36" height="36" viewBox="0 0 36 36" fill="none" xmlns="http://www.w3.org/2000/svg">
<path fill-rule="evenodd" clip-rule="evenodd" d="M6 4.5C6.82843 4.5 7.5 5.17157 7.5 6V16.5C7.5 17.6935 7.97411 18.8381 8.81802 19.682C9.66193 20.5259 10.8065 21 12 21H26.3787L21.4393 16.0607C20.8536 15.4749 20.8536 14.5251 21.4393 13.9393C22.0251 13.3536 22.9749 13.3536 23.5607 13.9393L31.0607 21.4393C31.6464 22.0251 31.6464 22.9749 31.0607 23.5607L23.5607 31.0607C22.9749 31.6464 22.0251 31.6464 21.4393 31.0607C20.8536 30.4749 20.8536 29.5251 21.4393 28.9393L26.3787 24H12C10.0109 24 8.10322 23.2098 6.6967 21.8033C5.29018 20.3968 4.5 18.4891 4.5 16.5V6C4.5 5.17157 5.17157 4.5 6 4.5Z" fill="url(#paint0_linear_9437_55041)"/>
<defs>
<linearGradient id="paint0_linear_9437_55041" x1="18" y1="4.5" x2="18" y2="31.5" gradientUnits="userSpaceOnUse">
<stop stop-color="#E28024"/>
<stop offset="1" stop-color="#FFAC5E"/>
</linearGradient>
</defs>
</svg>
