<svg width="36" height="36" viewBox="0 0 36 36" fill="none" xmlns="http://www.w3.org/2000/svg">
  <path d="M34.0607 16.9393C34.2045 17.0832 34.313 17.2489 34.3862 17.4258L34.0607 19.0607L28.0607 25.0607C27.4749 25.6464 26.5251 25.6464 25.9393 25.0607C25.3536 24.4749 25.3536 23.5251 25.9393 22.9393L29.3787 19.5L17.5576 19.5C16.5618 19.5096 15.574 19.3207 14.6519 18.9444C13.7273 18.5671 12.8873 18.0089 12.1813 17.3027L1.93934 7.06066C1.35355 6.47487 1.35355 5.52512 1.93934 4.93934C2.52513 4.35355 3.47487 4.35355 4.06066 4.93934L14.3027 15.1813C14.7263 15.6052 15.2306 15.9404 15.7854 16.1668C16.3402 16.3932 16.9347 16.5065 17.5339 16.5001L17.55 16.4999L29.3787 16.5L25.9393 13.0607C25.3536 12.4749 25.3536 11.5251 25.9393 10.9393C26.5251 10.3536 27.4749 10.3536 28.0607 10.9393L34.0607 16.9393Z" fill="url(#paint0_linear_9065_11015)"/>
  <path d="M34.3862 17.4258L34.0638 19.0575C34.3334 18.7863 34.5 18.4126 34.5 18C34.5 17.7966 34.4595 17.6027 34.3862 17.4258Z" fill="url(#paint1_linear_9065_11015)"/>
  <path d="M11.5607 23.5607C12.1464 22.9749 12.1464 22.0251 11.5607 21.4393C10.9749 20.8536 10.0251 20.8536 9.43934 21.4393L1.93934 28.9393C1.35355 29.5251 1.35355 30.4749 1.93934 31.0607C2.52513 31.6464 3.47487 31.6464 4.06066 31.0607L11.5607 23.5607Z" fill="url(#paint2_linear_9065_11015)"/>
  <defs>
    <linearGradient id="paint0_linear_9065_11015" x1="34.5" y1="18" x2="1.5" y2="18" gradientUnits="userSpaceOnUse">
      <stop stop-color="#E28024"/>
      <stop offset="1" stop-color="#FFAC5E"/>
    </linearGradient>
    <linearGradient id="paint1_linear_9065_11015" x1="34.5" y1="18" x2="1.5" y2="18" gradientUnits="userSpaceOnUse">
      <stop stop-color="#E28024"/>
      <stop offset="1" stop-color="#FFAC5E"/>
    </linearGradient>
    <linearGradient id="paint2_linear_9065_11015" x1="34.5" y1="18" x2="1.5" y2="18" gradientUnits="userSpaceOnUse">
      <stop stop-color="#E28024"/>
      <stop offset="1" stop-color="#FFAC5E"/>
    </linearGradient>
  </defs>
</svg>