<svg width="20" height="20" viewBox="0 0 20 20" fill="none" xmlns="http://www.w3.org/2000/svg">
<path d="M8.09157 1.78C7.98056 1.66623 7.84791 1.57582 7.70143 1.51409C7.55496 1.45236 7.39761 1.42056 7.23865 1.42056C7.0797 1.42056 6.92235 1.45236 6.77587 1.51409C6.6294 1.57582 6.49675 1.66623 6.38574 1.78H6.3799C6.15334 2.01206 6.0273 2.32402 6.02907 2.64833C6.02907 2.99 6.16324 3.29583 6.38074 3.51417L6.38657 3.52C6.60074 3.74 6.8999 3.875 7.23574 3.875C7.5724 3.875 7.87407 3.74 8.09157 3.52L8.09407 3.51417C8.31157 3.29583 8.4449 2.99 8.4449 2.64833C8.4449 2.30833 8.3124 2.00083 8.09407 1.78H8.09157ZM7.23574 18.5792C7.5724 18.5792 7.87407 18.44 8.09157 18.2217L8.09407 18.215C8.31157 17.9975 8.4449 17.6892 8.4449 17.3517C8.4449 17.01 8.3124 16.7033 8.09407 16.4817H8.09157C7.98056 16.3671 7.84751 16.2761 7.70044 16.2142C7.55336 16.1524 7.39529 16.1209 7.23574 16.1217C7.07702 16.1207 6.91977 16.1521 6.77362 16.214C6.62746 16.2759 6.49548 16.367 6.38574 16.4817H6.3799C6.16324 16.7033 6.02824 17.01 6.02824 17.3517C6.02824 17.69 6.1624 17.9975 6.3799 18.215L6.38574 18.2217C6.60074 18.44 6.8999 18.5792 7.23574 18.5792ZM13.8107 14.8608C14.1099 14.7808 14.3799 14.5858 14.5457 14.2908L14.5682 14.2475C14.7108 13.9737 14.7447 13.6561 14.6632 13.3583C14.6236 13.2028 14.5535 13.0567 14.4569 12.9286C14.3603 12.8004 14.2393 12.6927 14.1007 12.6117L14.0832 12.6C13.8101 12.4462 13.4871 12.4066 13.1849 12.49C12.8849 12.5658 12.6149 12.7692 12.4507 13.0617C12.2841 13.3525 12.2499 13.6867 12.3291 13.9942C12.4116 14.2967 12.6041 14.57 12.8916 14.7408H12.8932C13.1816 14.91 13.5074 14.94 13.8107 14.8608ZM8.47324 8.7425C8.31202 8.57756 8.11955 8.44641 7.90708 8.35669C7.6946 8.26698 7.46638 8.22051 7.23574 8.22C6.7524 8.22 6.31657 8.42167 6.00074 8.7425C5.68574 9.06333 5.49074 9.50583 5.49074 9.99833C5.49074 10.4908 5.6849 10.935 6.00074 11.26C6.16206 11.4242 6.35447 11.5545 6.56672 11.6435C6.77898 11.7325 7.00683 11.7784 7.23699 11.7784C7.46715 11.7784 7.695 11.7325 7.90725 11.6435C8.11951 11.5545 8.31191 11.4242 8.47324 11.26C8.78907 10.935 8.98324 10.4908 8.98324 9.99833C8.98324 9.50583 8.78907 9.06333 8.47324 8.7425ZM7.7774 6.65083C8.4799 6.76833 9.11074 7.11083 9.5924 7.60417H9.59574C9.6724 7.68167 9.7474 7.7675 9.81657 7.85333L11.0216 7.14417C10.8628 6.65635 10.8492 6.1329 10.9824 5.6375C11.0691 5.30331 11.2209 4.98951 11.4291 4.71409C11.6373 4.43868 11.8979 4.20706 12.1957 4.0325L12.2166 4.01917C12.5091 3.84923 12.8326 3.73917 13.168 3.6954C13.5035 3.65162 13.8444 3.675 14.1707 3.76417C14.8124 3.93917 15.3916 4.365 15.7524 4.99917V5.00083C16.1116 5.63167 16.1841 6.35583 16.0132 7.0075C15.9269 7.34207 15.7752 7.65626 15.567 7.93199C15.3588 8.20773 15.0981 8.43957 14.7999 8.61417L14.6349 8.7125H14.6182C14.0595 8.98244 13.4222 9.04191 12.8232 8.88C12.3352 8.74587 11.8968 8.47252 11.5616 8.09333L10.3582 8.8C10.6436 9.57426 10.6436 10.4249 10.3582 11.1992L11.5616 11.9042C11.9057 11.5125 12.3441 11.2467 12.8232 11.1175C13.1534 11.0259 13.4988 11.0023 13.8384 11.048C14.178 11.0936 14.5048 11.2077 14.7991 11.3833L14.8391 11.4025V11.4042C15.4208 11.762 15.8413 12.3313 16.0124 12.9925C16.1904 13.669 16.0968 14.3883 15.7516 14.9967L15.7299 15.0408L15.7274 15.0367C15.3832 15.6219 14.8255 16.0509 14.1716 16.2333C13.8411 16.3224 13.4962 16.3449 13.157 16.2994C12.8178 16.2539 12.491 16.1413 12.1957 15.9683V15.9633C11.5944 15.6101 11.1579 15.0325 10.9824 14.3575C10.8496 13.8629 10.8632 13.3404 11.0216 12.8533L9.81657 12.1467C9.74715 12.232 9.67344 12.3138 9.59574 12.3917L9.5924 12.3958C9.10405 12.8974 8.46807 13.2297 7.7774 13.3442V14.76C8.27189 14.8666 8.72403 15.1164 9.0774 15.4783L9.07907 15.4817C9.5499 15.9583 9.84074 16.6217 9.84074 17.3508C9.84074 18.0783 9.54907 18.7375 9.07907 19.2167L9.0774 19.2242C8.83733 19.4693 8.55083 19.6642 8.23463 19.7974C7.91843 19.9306 7.57885 19.9995 7.23574 20C6.89324 19.9991 6.55434 19.9302 6.23874 19.7971C5.92314 19.6641 5.63715 19.4696 5.3974 19.225H5.39574V19.2175C4.90588 18.7201 4.63165 18.0498 4.6324 17.3517C4.6324 16.6225 4.92407 15.9583 5.39574 15.4825V15.4792H5.3974C5.75063 15.1179 6.20203 14.8682 6.69574 14.7608V13.345C6.00544 13.2309 5.3699 12.8985 4.8824 12.3967L4.8774 12.3925C4.25012 11.7532 3.89907 10.8931 3.8999 9.9975C3.8999 9.0625 4.27657 8.2175 4.8774 7.60417H4.8824C5.36995 7.10145 6.00522 6.76747 6.69574 6.65083V5.24083C6.20247 5.13135 5.75151 4.88126 5.3974 4.52083H5.39574V4.5175C4.90553 4.01898 4.63131 3.34749 4.6324 2.64833C4.6324 1.9225 4.92407 1.2575 5.39574 0.779167L5.3974 0.7775C5.63649 0.531854 5.9223 0.336519 6.23801 0.202993C6.55372 0.0694675 6.89295 0.000448784 7.23574 0C7.95324 0 8.60324 0.295833 9.0774 0.776667V0.778333H9.07907C9.5499 1.25667 9.84074 1.92167 9.84074 2.6475C9.84074 3.3775 9.54907 4.03667 9.07907 4.51667L9.0774 4.52083C8.7227 4.88135 8.27118 5.13142 7.7774 5.24083V6.65083ZM14.5449 5.71L14.5349 5.69417C14.3753 5.42096 14.1151 5.22113 13.8099 5.1375C13.6563 5.09533 13.4959 5.08438 13.338 5.10527C13.1801 5.12617 13.028 5.1785 12.8907 5.25917H12.8924C12.6032 5.42583 12.4091 5.7 12.3282 6.00583C12.2491 6.31 12.2832 6.64583 12.4499 6.93833L12.4557 6.94583C12.6224 7.235 12.8882 7.42833 13.1841 7.50667C13.4816 7.5925 13.8132 7.55583 14.0991 7.38667L14.1149 7.37917C14.3861 7.21365 14.5825 6.9492 14.6624 6.64167C14.7464 6.32768 14.7043 5.99329 14.5449 5.71Z" fill="#F1F2F6"/>
</svg>
