<svg width="16" height="16" viewBox="0 0 16 16" fill="none" xmlns="http://www.w3.org/2000/svg">
<path fill-rule="evenodd" clip-rule="evenodd" d="M3.33325 2.66659C2.96506 2.66659 2.66659 2.96506 2.66659 3.33325V12.6666C2.66659 13.0348 2.96506 13.3333 3.33325 13.3333H12.6666C13.0348 13.3333 13.3333 13.0348 13.3333 12.6666V3.33325C13.3333 2.96506 13.0348 2.66659 12.6666 2.66659H3.33325ZM1.33325 3.33325C1.33325 2.22868 2.22868 1.33325 3.33325 1.33325H12.6666C13.7712 1.33325 14.6666 2.22868 14.6666 3.33325V12.6666C14.6666 13.7712 13.7712 14.6666 12.6666 14.6666H3.33325C2.22868 14.6666 1.33325 13.7712 1.33325 12.6666V3.33325Z" fill="white"/>
<path d="M3.99992 4.66659C3.99992 4.2984 4.2984 3.99992 4.66659 3.99992H7.99992V11.9999H4.66659C4.2984 11.9999 3.99992 11.7014 3.99992 11.3333V4.66659Z" fill="white"/>
</svg>
