<svg width="16" height="16" viewBox="0 0 16 16" fill="none" xmlns="http://www.w3.org/2000/svg">
<path fill-rule="evenodd" clip-rule="evenodd" d="M1.3335 3.9987C1.3335 3.63051 1.63197 3.33203 2.00016 3.33203H2.00683C2.37502 3.33203 2.6735 3.63051 2.6735 3.9987C2.6735 4.36689 2.37502 4.66536 2.00683 4.66536H2.00016C1.63197 4.66536 1.3335 4.36689 1.3335 3.9987ZM4.66683 3.9987C4.66683 3.63051 4.96531 3.33203 5.3335 3.33203H14.0002C14.3684 3.33203 14.6668 3.63051 14.6668 3.9987C14.6668 4.36689 14.3684 4.66536 14.0002 4.66536H5.3335C4.96531 4.66536 4.66683 4.36689 4.66683 3.9987ZM1.3335 7.9987C1.3335 7.63051 1.63197 7.33203 2.00016 7.33203H2.00683C2.37502 7.33203 2.6735 7.63051 2.6735 7.9987C2.6735 8.36689 2.37502 8.66536 2.00683 8.66536H2.00016C1.63197 8.66536 1.3335 8.36689 1.3335 7.9987ZM4.66683 7.9987C4.66683 7.63051 4.96531 7.33203 5.3335 7.33203H14.0002C14.3684 7.33203 14.6668 7.63051 14.6668 7.9987C14.6668 8.36689 14.3684 8.66536 14.0002 8.66536H5.3335C4.96531 8.66536 4.66683 8.36689 4.66683 7.9987ZM1.3335 11.9987C1.3335 11.6305 1.63197 11.332 2.00016 11.332H2.00683C2.37502 11.332 2.6735 11.6305 2.6735 11.9987C2.6735 12.3669 2.37502 12.6654 2.00683 12.6654H2.00016C1.63197 12.6654 1.3335 12.3669 1.3335 11.9987ZM4.66683 11.9987C4.66683 11.6305 4.96531 11.332 5.3335 11.332H14.0002C14.3684 11.332 14.6668 11.6305 14.6668 11.9987C14.6668 12.3669 14.3684 12.6654 14.0002 12.6654H5.3335C4.96531 12.6654 4.66683 12.3669 4.66683 11.9987Z" fill="#DFE2EA"/>
</svg>
