<svg width="34" height="22" viewBox="0 0 34 22" fill="none" xmlns="http://www.w3.org/2000/svg">
<g id="Group 1321323669">
<g id="Rectangle 34628219">
<path d="M17.001 3.12545C17.001 1.67545 18.1764 0.5 19.6264 0.5H33.6288C33.6288 3.39999 31.2779 5.7509 28.3779 5.7509H19.6264C18.1764 5.7509 17.001 4.57545 17.001 3.12545Z" fill="white"/>
<path d="M17.001 3.12545C17.001 1.67545 18.1764 0.5 19.6264 0.5H33.6288C33.6288 3.39999 31.2779 5.7509 28.3779 5.7509H19.6264C18.1764 5.7509 17.001 4.57545 17.001 3.12545Z" fill="url(#paint0_linear_683_20645)"/>
</g>
<path id="Rectangle 34628220" d="M8.31616 13.4245C8.31616 10.7476 10.4862 8.57751 13.1631 8.57751H31.8776C31.8776 11.2544 29.7075 13.4245 27.0306 13.4245H8.31616Z" fill="url(#paint1_linear_683_20645)"/>
<path id="Rectangle 34628221" d="M0.371582 21.4999C0.371582 18.5999 2.72249 16.249 5.62248 16.249H14.3739C15.8239 16.249 16.9994 17.4245 16.9994 18.8745C16.9994 20.3245 15.8239 21.4999 14.3739 21.4999H0.371582Z" fill="#D7613A"/>
<path id="Rectangle 34628222" d="M19.6218 18.8745C19.6218 17.4245 20.7973 16.249 22.2473 16.249H28.3733V17.1242C28.3733 19.5408 26.4142 21.4999 23.9976 21.4999H22.2473C20.7973 21.4999 19.6218 20.3245 19.6218 18.8745Z" fill="url(#paint2_linear_683_20645)"/>
</g>
<defs>
<linearGradient id="paint0_linear_683_20645" x1="17.001" y1="3.12545" x2="33.6288" y2="3.12545" gradientUnits="userSpaceOnUse">
<stop stop-color="#D7613A"/>
<stop offset="0.59" stop-color="#DC8946"/>
<stop offset="1" stop-color="#F9C078"/>
</linearGradient>
<linearGradient id="paint1_linear_683_20645" x1="8.31616" y1="11.001" x2="31.8776" y2="11.001" gradientUnits="userSpaceOnUse">
<stop stop-color="#D7613A"/>
<stop offset="0.59" stop-color="#DC8946"/>
<stop offset="1" stop-color="#F9C078"/>
</linearGradient>
<linearGradient id="paint2_linear_683_20645" x1="19.6218" y1="18.8745" x2="28.3733" y2="18.8745" gradientUnits="userSpaceOnUse">
<stop stop-color="#D7613A"/>
<stop offset="0.59" stop-color="#DC8946"/>
<stop offset="1" stop-color="#F9C078"/>
</linearGradient>
</defs>
</svg>
