<svg width="16" height="16" viewBox="0 0 16 16" fill="none" xmlns="http://www.w3.org/2000/svg">
<g clip-path="url(#clip0_22110_8759)">
<path fill-rule="evenodd" clip-rule="evenodd" d="M5.00257 0.754342C5.19611 0.643752 5.43211 0.637201 5.63148 0.736886L10.6457 3.24399L15.0026 0.754342C15.2089 0.636436 15.4624 0.637283 15.668 0.756564C15.8735 0.875845 16 1.09552 16 1.33317V11.9998C16 12.2391 15.8718 12.46 15.6641 12.5787L10.9974 15.2453C10.8039 15.3559 10.5679 15.3625 10.3685 15.2628L5.35431 12.7557L0.997426 15.2453C0.791091 15.3632 0.537592 15.3624 0.332049 15.2431C0.126506 15.1238 0 14.9042 0 14.6665V3.99984C0 3.7606 0.128191 3.5397 0.335907 3.42101L5.00257 0.754342ZM6 11.5878L10 13.5878V4.41186L6 2.41186V11.5878ZM4.66667 2.48196V11.613L1.33333 13.5177V4.38672L4.66667 2.48196ZM11.3333 4.38672V13.5177L14.6667 11.613V2.48196L11.3333 4.38672Z" fill="#B6BAC3"/>
</g>
<defs>
<clipPath id="clip0_22110_8759">
<rect width="16" height="16" fill="white"/>
</clipPath>
</defs>
</svg>
