<svg width="20" height="20" viewBox="0 0 20 20" fill="none" xmlns="http://www.w3.org/2000/svg">
<path fill-rule="evenodd" clip-rule="evenodd" d="M12.4998 3.33073C12.0396 3.33073 11.6665 2.95763 11.6665 2.4974C11.6665 2.03716 12.0396 1.66406 12.4998 1.66406H17.4998C17.9601 1.66406 18.3332 2.03716 18.3332 2.4974V7.4974C18.3332 7.95763 17.9601 8.33073 17.4998 8.33073C17.0396 8.33073 16.6665 7.95763 16.6665 7.4974V4.50924L12.2558 8.91998C11.9303 9.24542 11.4027 9.24542 11.0772 8.91998C10.7518 8.59455 10.7518 8.06691 11.0772 7.74147L15.488 3.33073H12.4998ZM7.74392 11.0748C8.06935 10.7494 8.59699 10.7494 8.92243 11.0748C9.24786 11.4002 9.24786 11.9279 8.92243 12.2533L4.51168 16.6641H7.49984C7.96007 16.6641 8.33317 17.0372 8.33317 17.4974C8.33317 17.9576 7.96007 18.3307 7.49984 18.3307H2.49984C2.0396 18.3307 1.6665 17.9576 1.6665 17.4974V12.4974C1.6665 12.0372 2.0396 11.6641 2.49984 11.6641C2.96007 11.6641 3.33317 12.0372 3.33317 12.4974V15.4856L7.74392 11.0748Z" fill="#F1F2F6"/>
</svg>
