<svg width="20" height="20" viewBox="0 0 20 20" fill="none" xmlns="http://www.w3.org/2000/svg">
<path fill-rule="evenodd" clip-rule="evenodd" d="M16.9108 1.90814C17.2363 1.5827 17.7639 1.5827 18.0893 1.90814C18.4148 2.23358 18.4148 2.76121 18.0893 3.08665L13.6786 7.4974H16.6667C17.127 7.4974 17.5001 7.87049 17.5001 8.33073C17.5001 8.79097 17.127 9.16406 16.6667 9.16406H11.6667C11.2065 9.16406 10.8334 8.79097 10.8334 8.33073V3.33073C10.8334 2.87049 11.2065 2.4974 11.6667 2.4974C12.127 2.4974 12.5001 2.87049 12.5001 3.33073V6.31888L16.9108 1.90814ZM2.50008 11.6641C2.50008 11.2038 2.87318 10.8307 3.33341 10.8307H8.33342C8.79365 10.8307 9.16675 11.2038 9.16675 11.6641V16.6641C9.16675 17.1243 8.79365 17.4974 8.33342 17.4974C7.87318 17.4974 7.50008 17.1243 7.50008 16.6641V13.6759L3.08934 18.0867C2.7639 18.4121 2.23626 18.4121 1.91083 18.0867C1.58539 17.7612 1.58539 17.2336 1.91083 16.9081L6.32157 12.4974H3.33341C2.87318 12.4974 2.50008 12.1243 2.50008 11.6641Z" fill="#F1F2F6"/>
</svg>
