<svg width="16" height="16" viewBox="0 0 16 16" fill="none" xmlns="http://www.w3.org/2000/svg">
<g id="asset">
<path id="vector" fill-rule="evenodd" clip-rule="evenodd" d="M2.66667 1.33398C3.03486 1.33398 3.33333 1.63246 3.33333 2.00065V6.66732C3.33333 7.03551 3.03486 7.33398 2.66667 7.33398C2.29848 7.33398 2 7.03551 2 6.66732V2.00065C2 1.63246 2.29848 1.33398 2.66667 1.33398ZM8 1.33398C8.36819 1.33398 8.66667 1.63246 8.66667 2.00065V4.66732H10C10.3682 4.66732 10.6667 4.96579 10.6667 5.33398C10.6667 5.70217 10.3682 6.00065 10 6.00065H6C5.63181 6.00065 5.33333 5.70217 5.33333 5.33398C5.33333 4.96579 5.63181 4.66732 6 4.66732H7.33333V2.00065C7.33333 1.63246 7.63181 1.33398 8 1.33398ZM13.3333 1.33398C13.7015 1.33398 14 1.63246 14 2.00065V8.00065C14 8.36884 13.7015 8.66732 13.3333 8.66732C12.9651 8.66732 12.6667 8.36884 12.6667 8.00065V2.00065C12.6667 1.63246 12.9651 1.33398 13.3333 1.33398ZM8 7.33398C8.36819 7.33398 8.66667 7.63246 8.66667 8.00065V14.0007C8.66667 14.3688 8.36819 14.6673 8 14.6673C7.63181 14.6673 7.33333 14.3688 7.33333 14.0007V8.00065C7.33333 7.63246 7.63181 7.33398 8 7.33398ZM0 9.33398C0 8.96579 0.298477 8.66732 0.666667 8.66732H4.66667C5.03486 8.66732 5.33333 8.96579 5.33333 9.33398C5.33333 9.70218 5.03486 10.0007 4.66667 10.0007H3.33333V14.0007C3.33333 14.3688 3.03486 14.6673 2.66667 14.6673C2.29848 14.6673 2 14.3688 2 14.0007V10.0007H0.666667C0.298477 10.0007 0 9.70218 0 9.33398ZM10.6667 10.6673C10.6667 10.2991 10.9651 10.0007 11.3333 10.0007H15.3333C15.7015 10.0007 16 10.2991 16 10.6673C16 11.0355 15.7015 11.334 15.3333 11.334H14V14.0007C14 14.3688 13.7015 14.6673 13.3333 14.6673C12.9651 14.6673 12.6667 14.3688 12.6667 14.0007V11.334H11.3333C10.9651 11.334 10.6667 11.0355 10.6667 10.6673Z" fill="#F1F2F6"/>
</g>
</svg>
