<svg width="16" height="16" viewBox="0 0 16 16" fill="none" xmlns="http://www.w3.org/2000/svg">
<path fill-rule="evenodd" clip-rule="evenodd" d="M3.33325 2.66667C3.33325 2.29848 3.63173 2 3.99992 2H6.66659C7.03478 2 7.33325 2.29848 7.33325 2.66667V13.3333C7.33325 13.7015 7.03478 14 6.66659 14H3.99992C3.63173 14 3.33325 13.7015 3.33325 13.3333V2.66667ZM4.66659 3.33333V12.6667H5.99992V3.33333H4.66659ZM8.66659 2.66667C8.66659 2.29848 8.96506 2 9.33325 2H11.9999C12.3681 2 12.6666 2.29848 12.6666 2.66667V13.3333C12.6666 13.7015 12.3681 14 11.9999 14H9.33325C8.96506 14 8.66659 13.7015 8.66659 13.3333V2.66667ZM9.99992 3.33333V12.6667H11.3333V3.33333H9.99992Z" fill="#C0C6D6"/>
</svg>
