<svg width="16" height="16" viewBox="0 0 16 16" fill="none" xmlns="http://www.w3.org/2000/svg">
<g clip-path="url(#clip0_10170_7830)">
<path d="M14.1951 0.863231C14.4555 0.602881 14.8775 0.602881 15.1378 0.863231C15.3982 1.12358 15.3982 1.54559 15.1378 1.80594L13.1378 3.80594C12.8775 4.06629 12.4555 4.06629 12.1951 3.80594C11.9348 3.54559 11.9348 3.12358 12.1951 2.86323L14.1951 0.863231Z" fill="#F1F2F6"/>
<path d="M2.86177 12.1966C3.12212 11.9362 3.54413 11.9362 3.80447 12.1966C4.06482 12.4569 4.06482 12.8789 3.80447 13.1393L1.80447 15.1393C1.54412 15.3996 1.12212 15.3996 0.861766 15.1393C0.601417 14.8789 0.601417 14.4569 0.861766 14.1966L2.86177 12.1966Z" fill="#F1F2F6"/>
<path d="M3.99976 7.33459C4.17657 7.33459 4.3461 7.40488 4.47112 7.5299L8.47112 11.5299C8.59614 11.6549 8.66643 11.8244 8.66643 12.0013C8.66643 12.1781 8.59614 12.3476 8.47112 12.4726L6.93792 14.0058C6.72748 14.2168 6.47745 14.3844 6.20224 14.4986C5.92676 14.613 5.63138 14.6718 5.3331 14.6718C5.03482 14.6718 4.73944 14.613 4.46396 14.4986C4.18873 14.3844 3.93872 14.2168 3.72828 14.0058L1.99521 12.2727L1.99586 12.2721C1.78487 12.0616 1.61665 11.8123 1.50237 11.5371C1.40233 11.2961 1.34466 11.0399 1.3318 10.7799L1.32919 10.6679C1.32919 10.3696 1.388 10.0743 1.50237 9.79878C1.61676 9.52328 1.78457 9.27302 1.99586 9.06245L3.52841 7.5299L3.57724 7.48563C3.69587 7.3884 3.84504 7.33459 3.99976 7.33459ZM2.66708 10.7597C2.67611 10.8511 2.69881 10.9409 2.73414 11.026C2.76948 11.111 2.8171 11.1902 2.87542 11.261L2.93726 11.3287L2.93792 11.33L4.67099 13.0631L4.67229 13.0638L4.74 13.1256C4.81084 13.1839 4.88999 13.2315 4.97503 13.2669C5.08847 13.314 5.21027 13.3385 5.3331 13.3385C5.45594 13.3385 5.57772 13.314 5.69117 13.2669C5.80454 13.2198 5.9079 13.1507 5.99456 13.0638L7.05706 12.0013L3.99976 8.94396L2.93792 10.0058L2.93726 10.0071C2.85033 10.0938 2.78124 10.1965 2.73414 10.3098C2.68703 10.4233 2.66253 10.5451 2.66253 10.6679L2.66708 10.7597Z" fill="#F1F2F6"/>
<path d="M6.24588 6.81766C6.50773 6.60409 6.89373 6.61915 7.13781 6.86323C7.38189 7.10731 7.39695 7.49331 7.18338 7.75516L7.13781 7.80594L5.47114 9.47261C5.21079 9.73296 4.78878 9.73296 4.52843 9.47261C4.26808 9.21226 4.26808 8.79025 4.52843 8.5299L6.1951 6.86323L6.24588 6.81766Z" fill="#F1F2F6"/>
<path d="M8.24588 8.81766C8.50773 8.60409 8.89373 8.61915 9.13781 8.86323C9.38189 9.10731 9.39695 9.49331 9.18338 9.75516L9.13781 9.80594L7.47114 11.4726C7.21079 11.733 6.78878 11.733 6.52843 11.4726C6.26808 11.2123 6.26808 10.7902 6.52843 10.5299L8.1951 8.86323L8.24588 8.81766Z" fill="#F1F2F6"/>
<path d="M13.337 5.33456C13.337 5.21173 13.3125 5.08993 13.2654 4.97649C13.2183 4.86315 13.1492 4.7604 13.0623 4.67376L13.0616 4.67245L11.3286 2.93938L11.3273 2.93873C11.2406 2.85179 11.1379 2.7827 11.0245 2.7356C10.9111 2.6885 10.7893 2.66399 10.6665 2.66399C10.5436 2.66399 10.4218 2.6885 10.3084 2.7356C10.195 2.7827 10.0923 2.85179 10.0056 2.93873L10.0043 2.93938L8.9425 4.00123L11.9998 7.05852L13.0616 5.99667L13.0623 5.99537C13.1492 5.90872 13.2183 5.80598 13.2654 5.69264C13.3125 5.57919 13.337 5.4574 13.337 5.33456ZM14.6704 5.33456C14.6704 5.63284 14.6116 5.92822 14.4972 6.2037C14.3829 6.47892 14.2147 6.72829 14.0037 6.93873L14.0043 6.93938L12.4711 8.47258C12.3461 8.59761 12.1766 8.6679 11.9998 8.6679C11.823 8.6679 11.6535 8.59761 11.5284 8.47258L7.52843 4.47258C7.40342 4.34756 7.33312 4.17804 7.33312 4.00123C7.33313 3.82443 7.40341 3.65489 7.52843 3.52988L9.06164 1.99667C9.27207 1.78569 9.5221 1.61811 9.79731 1.50383C10.0728 1.38946 10.3682 1.33066 10.6665 1.33066C10.9647 1.33066 11.2601 1.38946 11.5356 1.50383C11.8108 1.61811 12.0608 1.78569 12.2713 1.99667L14.0037 3.72909L14.0812 3.80982C14.2563 4.00252 14.3971 4.2244 14.4972 4.46542C14.6116 4.74091 14.6704 5.03628 14.6704 5.33456Z" fill="#F1F2F6"/>
</g>
<defs>
<clipPath id="clip0_10170_7830">
<rect width="16" height="16" fill="white"/>
</clipPath>
</defs>
</svg>
