<svg width="20" height="20" viewBox="0 0 20 20" fill="none" xmlns="http://www.w3.org/2000/svg">
<g id="icon/right-topic">
<path id="vector" fill-rule="evenodd" clip-rule="evenodd" d="M4.1665 3.33464C3.70627 3.33464 3.33317 3.70773 3.33317 4.16797V15.8346C3.33317 16.2949 3.70627 16.668 4.1665 16.668H15.8332C16.2934 16.668 16.6665 16.2949 16.6665 15.8346V4.16797C16.6665 3.70773 16.2934 3.33464 15.8332 3.33464H4.1665ZM1.6665 4.16797C1.6665 2.78726 2.78579 1.66797 4.1665 1.66797H15.8332C17.2139 1.66797 18.3332 2.78726 18.3332 4.16797V15.8346C18.3332 17.2153 17.2139 18.3346 15.8332 18.3346H4.1665C2.78579 18.3346 1.6665 17.2153 1.6665 15.8346V4.16797Z" fill="#A8ADB8"/>
<path id="Rectangle 34628223" d="M10 5H14C14.5523 5 15 5.44772 15 6V14C15 14.5523 14.5523 15 14 15H10V5Z" fill="#A8ADB8"/>
</g>
</svg>
