<svg width="16" height="16" viewBox="0 0 16 16" fill="none" xmlns="http://www.w3.org/2000/svg">
<path fill-rule="evenodd" clip-rule="evenodd" d="M8.00008 0.664062C8.36827 0.664062 8.66675 0.962539 8.66675 1.33073V7.9974C8.66675 8.36559 8.36827 8.66406 8.00008 8.66406C7.63189 8.66406 7.33342 8.36559 7.33342 7.9974V1.33073C7.33342 0.962539 7.63189 0.664062 8.00008 0.664062ZM4.22474 3.95258C4.48513 4.21289 4.4852 4.635 4.2249 4.89539C3.47919 5.64134 2.97141 6.59165 2.76577 7.62617C2.56012 8.66069 2.66584 9.73295 3.06956 10.7074C3.47328 11.6818 4.15686 12.5147 5.03389 13.1006C5.91091 13.6866 6.94199 13.9993 7.99675 13.9993C9.05151 13.9993 10.0826 13.6866 10.9596 13.1006C11.8366 12.5147 12.5202 11.6818 12.9239 10.7074C13.3277 9.73295 13.4334 8.66069 13.2277 7.62617C13.0221 6.59165 12.5143 5.64134 11.7686 4.89539C11.5083 4.635 11.5084 4.21289 11.7688 3.95258C12.0291 3.69227 12.4513 3.69234 12.7116 3.95273C13.6437 4.88517 14.2784 6.07306 14.5355 7.36621C14.7925 8.65936 14.6604 9.99969 14.1557 11.2177C13.6511 12.4358 12.7966 13.4768 11.7003 14.2093C10.604 14.9417 9.3152 15.3327 7.99675 15.3327C6.6783 15.3327 5.38945 14.9417 4.29317 14.2093C3.19689 13.4768 2.34241 12.4358 1.83776 11.2177C1.33311 9.99969 1.20096 8.65936 1.45802 7.36621C1.71508 6.07306 2.3498 4.88517 3.28193 3.95273C3.54224 3.69234 3.96435 3.69227 4.22474 3.95258Z" fill="#DFE2EA"/>
</svg>
