<svg width="16" height="16" viewBox="0 0 16 16" fill="none" xmlns="http://www.w3.org/2000/svg">
<path d="M6.86209 10.1953C7.12244 9.93496 7.54445 9.93496 7.8048 10.1953C8.06515 10.4557 8.06515 10.8777 7.8048 11.138L5.13813 13.8047C4.87778 14.065 4.45577 14.065 4.19543 13.8047L1.52876 11.138C1.26841 10.8777 1.26841 10.4557 1.52876 10.1953C1.78911 9.93496 2.21112 9.93496 2.47147 10.1953L4.66678 12.3906L6.86209 10.1953Z" fill="#A8ADB8"/>
<path d="M4.00011 13.3333V2.66667C4.00011 2.29848 4.29859 2 4.66678 2C5.03497 2 5.33345 2.29848 5.33345 2.66667V13.3333C5.33345 13.7015 5.03497 14 4.66678 14C4.29859 14 4.00011 13.7015 4.00011 13.3333Z" fill="#A8ADB8"/>
</svg>
