<svg width="16" height="16" viewBox="0 0 16 16" fill="none" xmlns="http://www.w3.org/2000/svg">
<path d="M4.24621 2.14974C4.50806 1.93617 4.89406 1.95124 5.13813 2.19531L7.8048 4.86198C8.06515 5.12233 8.06515 5.54434 7.8048 5.80469C7.54445 6.06504 7.12244 6.06504 6.86209 5.80469L4.66678 3.60938L2.47147 5.80469C2.21112 6.06504 1.78911 6.06504 1.52876 5.80469C1.26841 5.54434 1.26841 5.12233 1.52876 4.86198L4.19543 2.19531L4.24621 2.14974Z" fill="#A8ADB8"/>
<path d="M4.00011 13.3333V2.66667C4.00011 2.29848 4.29859 2 4.66678 2C5.03497 2 5.33345 2.29848 5.33345 2.66667V13.3333C5.33345 13.7015 5.03497 14 4.66678 14C4.29859 14 4.00011 13.7015 4.00011 13.3333Z" fill="#A8ADB8"/>
</svg>
