<svg width="16" height="16" viewBox="0 0 16 16" fill="none" xmlns="http://www.w3.org/2000/svg">
<path d="M13.5288 10.1953C13.7891 9.93496 14.2111 9.93496 14.4715 10.1953C14.7318 10.4557 14.7318 10.8777 14.4715 11.138L11.8048 13.8047C11.5445 14.065 11.1224 14.065 10.8621 13.8047L8.19543 11.138C7.93508 10.8777 7.93508 10.4557 8.19543 10.1953C8.45577 9.93496 8.87778 9.93496 9.13813 10.1953L11.3334 12.3906L13.5288 10.1953Z" fill="#757575"/>
<path d="M10.6668 13.3333V2.66667C10.6668 2.29848 10.9653 2 11.3334 2C11.7016 2 12.0001 2.29848 12.0001 2.66667V13.3333C12.0001 13.7015 11.7016 14 11.3334 14C10.9653 14 10.6668 13.7015 10.6668 13.3333Z" fill="#757575"/>
<path d="M4.24621 2.14974C4.50806 1.93617 4.89406 1.95124 5.13813 2.19531L7.8048 4.86198C8.06515 5.12233 8.06515 5.54434 7.8048 5.80469C7.54445 6.06504 7.12244 6.06504 6.86209 5.80469L4.66678 3.60938L2.47147 5.80469C2.21112 6.06504 1.78911 6.06504 1.52876 5.80469C1.26841 5.54434 1.26841 5.12233 1.52876 4.86198L4.19543 2.19531L4.24621 2.14974Z" fill="#757575"/>
<path d="M4.00011 13.3333V2.66667C4.00011 2.29848 4.29859 2 4.66678 2C5.03497 2 5.33345 2.29848 5.33345 2.66667V13.3333C5.33345 13.7015 5.03497 14 4.66678 14C4.29859 14 4.00011 13.7015 4.00011 13.3333Z" fill="#757575"/>
</svg>
