<svg width="16" height="16" viewBox="0 0 16 16" fill="none" xmlns="http://www.w3.org/2000/svg">
<path fill-rule="evenodd" clip-rule="evenodd" d="M3.3335 2.66927C2.96531 2.66927 2.66683 2.96775 2.66683 3.33594V12.6693C2.66683 13.0375 2.96531 13.3359 3.3335 13.3359H12.6668C13.035 13.3359 13.3335 13.0375 13.3335 12.6693V3.33594C13.3335 2.96775 13.035 2.66927 12.6668 2.66927H3.3335ZM1.3335 3.33594C1.3335 2.23137 2.22893 1.33594 3.3335 1.33594H12.6668C13.7714 1.33594 14.6668 2.23137 14.6668 3.33594V12.6693C14.6668 13.7738 13.7714 14.6693 12.6668 14.6693H3.3335C2.22893 14.6693 1.3335 13.7738 1.3335 12.6693V3.33594Z" fill="white"/>
</svg>
