<svg width="16" height="16" viewBox="0 0 16 16" fill="none" xmlns="http://www.w3.org/2000/svg">
<g id="asset">
<path id="vector" fill-rule="evenodd" clip-rule="evenodd" d="M6.66665 1.99935C6.48984 1.99935 6.32027 2.06959 6.19524 2.19461C6.07022 2.31964 5.99998 2.4892 5.99998 2.66602V3.33268H9.99998V2.66602C9.99998 2.4892 9.92974 2.31964 9.80472 2.19461C9.67969 2.06959 9.51012 1.99935 9.33331 1.99935H6.66665ZM11.3333 3.33268V2.66602C11.3333 2.13558 11.1226 1.62687 10.7475 1.2518C10.3725 0.876729 9.86375 0.666016 9.33331 0.666016H6.66665C6.13621 0.666016 5.62751 0.876729 5.25243 1.2518C4.87736 1.62687 4.66665 2.13558 4.66665 2.66602V3.33268H1.99998C1.63179 3.33268 1.33331 3.63116 1.33331 3.99935C1.33331 4.36754 1.63179 4.66602 1.99998 4.66602H2.66665V13.3327C2.66665 13.8631 2.87736 14.3718 3.25243 14.7469C3.62751 15.122 4.13621 15.3327 4.66665 15.3327H11.3333C11.8637 15.3327 12.3725 15.122 12.7475 14.7469C13.1226 14.3718 13.3333 13.8631 13.3333 13.3327V4.66602H14C14.3682 4.66602 14.6666 4.36754 14.6666 3.99935C14.6666 3.63116 14.3682 3.33268 14 3.33268H11.3333ZM3.99998 4.66602V13.3327C3.99998 13.5095 4.07022 13.6791 4.19524 13.8041C4.32027 13.9291 4.48984 13.9993 4.66665 13.9993H11.3333C11.5101 13.9993 11.6797 13.9291 11.8047 13.8041C11.9297 13.6791 12 13.5095 12 13.3327V4.66602H3.99998Z" fill="#DFE2EA"/>
</g>
</svg>
