<svg width="22" height="16" viewBox="0 0 22 16" fill="none" xmlns="http://www.w3.org/2000/svg">
<path fill-rule="evenodd" clip-rule="evenodd" d="M0.560649 0.101692C0.903745 -0.0661107 1.31246 -0.0238291 1.61394 0.210655L10.6139 7.21066C10.8575 7.40011 11 7.69142 11 8.00001C11 8.3086 10.8575 8.5999 10.6139 8.78936L1.61394 15.7894C1.31246 16.0238 0.903745 16.0661 0.560649 15.8983C0.217552 15.7305 0 15.3819 0 15V1.00001C0 0.618074 0.217552 0.269496 0.560649 0.101692ZM11.5606 0.101692C11.9037 -0.0661107 12.3125 -0.0238291 12.6139 0.210655L21.6139 7.21066C21.8575 7.40011 22 7.69142 22 8.00001C22 8.3086 21.8575 8.5999 21.6139 8.78936L12.6139 15.7894C12.3125 16.0238 11.9037 16.0661 11.5606 15.8983C11.2176 15.7305 11 15.3819 11 15V8.00001V1.00001C11 0.618074 11.2176 0.269496 11.5606 0.101692ZM2 3.04465V12.9554L8.37118 8.00001L2 3.04465ZM13 3.04465V12.9554L19.3712 8.00001L13 3.04465Z" fill="#14181F"/>
</svg>
