<svg width="36" height="36" viewBox="0 0 36 36" fill="none" xmlns="http://www.w3.org/2000/svg">
<path fill-rule="evenodd" clip-rule="evenodd" d="M3 19.5C3.82843 19.5 4.5 20.1716 4.5 21V22.5C4.5 23.2957 4.81607 24.0587 5.37868 24.6213C5.94129 25.1839 6.70435 25.5 7.5 25.5H15C15.8284 25.5 16.5 26.1716 16.5 27C16.5 27.8284 15.8284 28.5 15 28.5H7.5C5.9087 28.5 4.38258 27.8679 3.25736 26.7426C2.13214 25.6174 1.5 24.0913 1.5 22.5V21C1.5 20.1716 2.17157 19.5 3 19.5Z" fill="url(#paint0_linear_9437_55031)"/>
<path fill-rule="evenodd" clip-rule="evenodd" d="M19.5 3C19.5 2.17157 20.1716 1.5 21 1.5C22.1935 1.5 23.3381 1.97411 24.182 2.81802C25.0259 3.66193 25.5 4.80653 25.5 6V12C25.5 13.1935 25.0259 14.3381 24.182 15.182C23.3381 16.0259 22.1935 16.5 21 16.5C20.1716 16.5 19.5 15.8284 19.5 15C19.5 14.1716 20.1716 13.5 21 13.5C21.3978 13.5 21.7794 13.342 22.0607 13.0607C22.342 12.7794 22.5 12.3978 22.5 12V6C22.5 5.60218 22.342 5.22064 22.0607 4.93934C21.7794 4.65804 21.3978 4.5 21 4.5C20.1716 4.5 19.5 3.82843 19.5 3Z" fill="url(#paint1_linear_9437_55031)"/>
<path fill-rule="evenodd" clip-rule="evenodd" d="M28.5 3C28.5 2.17157 29.1716 1.5 30 1.5C31.1935 1.5 32.3381 1.97411 33.182 2.81802C34.0259 3.66193 34.5 4.80653 34.5 6V12C34.5 13.1935 34.0259 14.3381 33.182 15.182C32.3381 16.0259 31.1935 16.5 30 16.5C29.1716 16.5 28.5 15.8284 28.5 15C28.5 14.1716 29.1716 13.5 30 13.5C30.3978 13.5 30.7794 13.342 31.0607 13.0607C31.342 12.7794 31.5 12.3978 31.5 12V6C31.5 5.60218 31.342 5.22064 31.0607 4.93934C30.7794 4.65804 30.3978 4.5 30 4.5C29.1716 4.5 28.5 3.82843 28.5 3Z" fill="url(#paint2_linear_9437_55031)"/>
<path fill-rule="evenodd" clip-rule="evenodd" d="M9.43934 21.4393C10.0251 20.8536 10.9749 20.8536 11.5607 21.4393L16.0607 25.9393C16.6464 26.5251 16.6464 27.4749 16.0607 28.0607L11.5607 32.5607C10.9749 33.1464 10.0251 33.1464 9.43934 32.5607C8.85355 31.9749 8.85355 31.0251 9.43934 30.4393L12.8787 27L9.43934 23.5607C8.85355 22.9749 8.85355 22.0251 9.43934 21.4393Z" fill="url(#paint3_linear_9437_55031)"/>
<path fill-rule="evenodd" clip-rule="evenodd" d="M24 22.5C23.1716 22.5 22.5 23.1716 22.5 24V30C22.5 30.8284 23.1716 31.5 24 31.5H30C30.8284 31.5 31.5 30.8284 31.5 30V24C31.5 23.1716 30.8284 22.5 30 22.5H24ZM19.5 24C19.5 21.5147 21.5147 19.5 24 19.5H30C32.4853 19.5 34.5 21.5147 34.5 24V30C34.5 32.4853 32.4853 34.5 30 34.5H24C21.5147 34.5 19.5 32.4853 19.5 30V24Z" fill="url(#paint4_linear_9437_55031)"/>
<path fill-rule="evenodd" clip-rule="evenodd" d="M6 4.5C5.17157 4.5 4.5 5.17157 4.5 6V12C4.5 12.8284 5.17157 13.5 6 13.5H12C12.8284 13.5 13.5 12.8284 13.5 12V6C13.5 5.17157 12.8284 4.5 12 4.5H6ZM1.5 6C1.5 3.51472 3.51472 1.5 6 1.5H12C14.4853 1.5 16.5 3.51472 16.5 6V12C16.5 14.4853 14.4853 16.5 12 16.5H6C3.51472 16.5 1.5 14.4853 1.5 12V6Z" fill="url(#paint5_linear_9437_55031)"/>
<defs>
<linearGradient id="paint0_linear_9437_55031" x1="18" y1="1.5" x2="18" y2="34.5" gradientUnits="userSpaceOnUse">
<stop stop-color="#E28024"/>
<stop offset="1" stop-color="#FFAC5E"/>
</linearGradient>
<linearGradient id="paint1_linear_9437_55031" x1="18" y1="1.5" x2="18" y2="34.5" gradientUnits="userSpaceOnUse">
<stop stop-color="#E28024"/>
<stop offset="1" stop-color="#FFAC5E"/>
</linearGradient>
<linearGradient id="paint2_linear_9437_55031" x1="18" y1="1.5" x2="18" y2="34.5" gradientUnits="userSpaceOnUse">
<stop stop-color="#E28024"/>
<stop offset="1" stop-color="#FFAC5E"/>
</linearGradient>
<linearGradient id="paint3_linear_9437_55031" x1="18" y1="1.5" x2="18" y2="34.5" gradientUnits="userSpaceOnUse">
<stop stop-color="#E28024"/>
<stop offset="1" stop-color="#FFAC5E"/>
</linearGradient>
<linearGradient id="paint4_linear_9437_55031" x1="18" y1="1.5" x2="18" y2="34.5" gradientUnits="userSpaceOnUse">
<stop stop-color="#E28024"/>
<stop offset="1" stop-color="#FFAC5E"/>
</linearGradient>
<linearGradient id="paint5_linear_9437_55031" x1="18" y1="1.5" x2="18" y2="34.5" gradientUnits="userSpaceOnUse">
<stop stop-color="#E28024"/>
<stop offset="1" stop-color="#FFAC5E"/>
</linearGradient>
</defs>
</svg>
