<svg width="12" height="12" viewBox="0 0 12 12" fill="none" xmlns="http://www.w3.org/2000/svg">
<path fill-rule="evenodd" clip-rule="evenodd" d="M0.410826 0.412046C0.736263 0.0866095 1.2639 0.0866095 1.58934 0.412046L6.00008 4.82279L10.4108 0.412046C10.7363 0.0866095 11.2639 0.0866095 11.5893 0.412046C11.9148 0.737483 11.9148 1.26512 11.5893 1.59056L7.17859 6.0013L11.5893 10.412C11.9148 10.7375 11.9148 11.2651 11.5893 11.5906C11.2639 11.916 10.7363 11.916 10.4108 11.5906L6.00008 7.17981L1.58934 11.5906C1.2639 11.916 0.736263 11.916 0.410826 11.5906C0.0853888 11.2651 0.0853888 10.7375 0.410826 10.412L4.82157 6.0013L0.410826 1.59056C0.0853888 1.26512 0.0853888 0.737483 0.410826 0.412046Z" fill="#E22C2C"/>
</svg>
