<svg width="160" height="24" viewBox="0 0 160 24" fill="none" xmlns="http://www.w3.org/2000/svg">
<path d="M14.8737 4.95771C14.8737 3.66091 15.925 2.60964 17.2218 2.60964H29.7448C29.7448 5.20325 27.6422 7.30578 25.0486 7.30578H17.2218C15.925 7.30578 14.8737 6.25451 14.8737 4.95771Z" fill="white"/>
<path d="M14.8737 4.95771C14.8737 3.66091 15.925 2.60964 17.2218 2.60964H29.7448C29.7448 5.20325 27.6422 7.30578 25.0486 7.30578H17.2218C15.925 7.30578 14.8737 6.25451 14.8737 4.95771Z" fill="url(#paint0_linear_9065_10991)"/>
<path d="M7.10559 14.1684C7.10559 11.7743 9.04639 9.83353 11.4405 9.83353H28.1777C28.1777 12.2276 26.2369 14.1684 23.8428 14.1684H7.10559Z" fill="url(#paint1_linear_9065_10991)"/>
<path d="M0 21.3901C0 18.7965 2.10253 16.694 4.69613 16.694H12.523C13.8198 16.694 14.871 17.7453 14.871 19.0421C14.871 20.3389 13.8198 21.3901 12.523 21.3901H0Z" fill="#D7613A"/>
<path d="M17.2174 19.0421C17.2174 17.7453 18.2687 16.694 19.5655 16.694H25.0443V17.4767C25.0443 19.638 23.2922 21.3901 21.1308 21.3901H19.5655C18.2687 21.3901 17.2174 20.3389 17.2174 19.0421Z" fill="url(#paint2_linear_9065_10991)"/>
<path fill-rule="evenodd" clip-rule="evenodd" d="M51.3414 11.3801H42.4376C42.3249 11.3801 42.184 11.4646 42.1558 11.6055L41.705 13.7751C41.6768 13.8878 41.7613 14.0005 41.874 14.0005H47.3121C46.4105 18.0016 44.4099 19.495 41.3387 19.495C38.0702 19.495 36.3232 17.2972 36.3232 13.9724C36.3232 8.90056 39.3663 4.47681 43.7337 4.47681C46.1851 4.47681 47.9602 5.85747 48.2701 8.25249C48.2983 8.39337 48.411 8.4779 48.5237 8.4779H51.6232C51.7359 8.4779 51.8486 8.3652 51.8486 8.25249C51.5387 4.19504 48.2701 1.74366 43.9309 1.74366C37.563 1.74366 32.7448 7.40719 32.7448 13.9724C32.7448 19.016 35.9569 22.2563 41.0851 22.2563C46.3823 22.2563 50.158 19.2132 51.5387 11.6055C51.5387 11.4928 51.4541 11.3801 51.3414 11.3801ZM54.289 21.8604H51.3587C51.2459 21.8604 51.1614 21.7477 51.1896 21.635L53.5283 11.9422L55.6415 2.36208C55.6697 2.2212 55.8106 2.13667 55.9233 2.13667H58.8537C58.9664 2.13667 59.0509 2.24937 59.0227 2.36208L56.7122 11.9422L54.5708 21.635C54.5426 21.7759 54.4017 21.8604 54.289 21.8604ZM105.225 21.8604H102.154C102.041 21.8604 101.957 21.7477 101.985 21.635L104.323 11.9985L106.437 2.36208C106.465 2.2212 106.606 2.13667 106.718 2.13667H118.975C119.088 2.13667 119.173 2.24937 119.144 2.36208L118.665 4.61622C118.637 4.75711 118.496 4.84164 118.384 4.84164H109.395L107.846 10.9278H116.496C116.609 10.9278 116.693 11.0405 116.665 11.1532L116.186 13.4074C116.158 13.5483 116.017 13.6328 115.904 13.6328H107.254L105.507 21.635C105.479 21.7759 105.338 21.8604 105.225 21.8604ZM116.633 21.8604H119.563C119.676 21.8604 119.817 21.7759 119.845 21.635L121.986 11.9422L124.297 2.36208C124.325 2.24937 124.24 2.13667 124.128 2.13667H121.197C121.085 2.13667 120.944 2.2212 120.916 2.36208L118.802 11.9422L116.464 21.635C116.435 21.7477 116.52 21.8604 116.633 21.8604ZM123.269 16.0878C123.269 10.8188 126.707 7.01492 131.553 7.01492C135.329 7.01492 137.893 9.35359 137.893 13.1011C137.893 18.2293 134.511 22.2022 129.665 22.2022C125.918 22.2022 123.269 19.8635 123.269 16.0878ZM126.707 16.3132C126.707 18.5956 127.805 19.8072 129.778 19.8072C132.595 19.8072 134.455 17.1867 134.455 12.9602C134.455 10.6497 133.3 9.40994 131.384 9.40994C128.566 9.40994 126.707 12.1149 126.707 16.3132ZM152.753 21.8617H149.231C149.119 21.8617 149.006 21.749 149.006 21.6363V10.0557L143.934 21.6645C143.878 21.7772 143.765 21.8617 143.624 21.8617H140.102C139.989 21.8617 139.877 21.749 139.877 21.6363L139.679 7.5761C139.679 7.4634 139.792 7.35069 139.905 7.35069H142.553C142.666 7.35069 142.779 7.4634 142.779 7.5761L142.3 19.2131L147.4 7.54793C147.456 7.43522 147.569 7.35069 147.71 7.35069H151.345C151.457 7.35069 151.57 7.4634 151.57 7.5761L151.345 18.9313L156.219 7.54793C156.276 7.43522 156.388 7.35069 156.529 7.35069H159.544C159.657 7.35069 159.713 7.4634 159.685 7.54793L153.063 21.6645C153.007 21.7772 152.894 21.8617 152.753 21.8617ZM96.0335 13.2498C94.3223 12.7891 92.8271 12.3865 92.8271 11.2414C92.8271 10.1425 93.8414 9.2127 95.6166 9.2127C97.5044 9.2127 98.6597 10.1425 98.6878 11.5514C98.6878 11.6923 98.8006 11.7768 98.9133 11.7768H101.618C101.731 11.7768 101.844 11.6641 101.872 11.5514C102.041 8.50828 98.9978 7.01492 95.8138 7.01492C91.6718 7.01492 89.4177 9.24088 89.4177 11.5795C89.4177 14.465 92.1315 15.2241 94.4366 15.8689C96.1382 16.3449 97.6171 16.7586 97.6171 17.9193C97.6171 19.0464 96.6591 19.948 94.7995 19.948C92.489 19.948 91.1083 18.9055 91.1646 17.1304C91.1646 17.0177 91.0519 16.905 90.9392 16.905H88.0934C87.9807 16.905 87.8398 17.0177 87.8398 17.1304C87.5017 20.2016 90.5166 22.2022 94.574 22.2022C98.4342 22.2022 100.998 20.1171 100.998 17.3276C100.998 14.5866 98.3227 13.8662 96.0335 13.2498ZM78.314 11.2414C78.314 12.3865 79.8092 12.7891 81.5204 13.2498C83.8095 13.8662 86.4852 14.5866 86.4852 17.3276C86.4852 20.1171 83.9211 22.2022 80.0609 22.2022C76.0035 22.2022 72.9885 20.2016 73.3267 17.1304C73.3267 17.0177 73.4676 16.905 73.5803 16.905H76.4261C76.5388 16.905 76.6515 17.0177 76.6515 17.1304C76.5952 18.9055 77.9758 19.948 80.2863 19.948C82.146 19.948 83.104 19.0464 83.104 17.9193C83.104 16.7586 81.6251 16.3449 79.9235 15.8689C77.6184 15.2241 74.9046 14.465 74.9046 11.5795C74.9046 9.24088 77.1587 7.01492 81.3007 7.01492C84.4847 7.01492 87.5278 8.50828 87.3587 11.5514C87.3305 11.6641 87.2178 11.7768 87.1051 11.7768H84.4001C84.2874 11.7768 84.1747 11.6923 84.1747 11.5514C84.1465 10.1425 82.9913 9.2127 81.1035 9.2127C79.3283 9.2127 78.314 10.1425 78.314 11.2414ZM64.4136 19.7201C61.9059 19.7483 60.8633 17.5505 61.7086 13.9721C62.3285 11.2389 63.681 9.57651 65.7379 9.49198H66.1887C68.4711 9.60468 69.5418 11.6052 68.6965 15.2682C67.9639 18.2268 66.4705 19.7483 64.4136 19.7201ZM67.2313 21.8616H70.1898C70.3026 21.8616 70.4434 21.777 70.4716 21.6362L72.0213 14.5638L73.7119 7.57596C73.7401 7.46325 73.6556 7.35054 73.5429 7.35054H70.5561C70.4434 7.35054 70.3026 7.43507 70.2744 7.57596L69.8235 9.77374C69.0628 8.02678 67.4567 7.09695 65.2871 7.09695C61.3705 7.09695 59.0882 10.1964 58.2993 13.6058C57.1158 18.5931 59.2854 22.1152 63.1738 22.1152C64.8926 22.1152 66.3015 21.4389 67.4285 20.2837L67.0622 21.6362C67.034 21.7489 67.1186 21.8616 67.2313 21.8616Z" fill="url(#paint3_linear_9065_10991)"/>
<defs>
<linearGradient id="paint0_linear_9065_10991" x1="14.8737" y1="4.95771" x2="29.7448" y2="4.95771" gradientUnits="userSpaceOnUse">
<stop stop-color="#D7613A"/>
<stop offset="0.59" stop-color="#DC8946"/>
<stop offset="1" stop-color="#F9C078"/>
</linearGradient>
<linearGradient id="paint1_linear_9065_10991" x1="7.10559" y1="12.001" x2="28.1777" y2="12.001" gradientUnits="userSpaceOnUse">
<stop stop-color="#D7613A"/>
<stop offset="0.59" stop-color="#DC8946"/>
<stop offset="1" stop-color="#F9C078"/>
</linearGradient>
<linearGradient id="paint2_linear_9065_10991" x1="17.2174" y1="19.0421" x2="25.0443" y2="19.0421" gradientUnits="userSpaceOnUse">
<stop stop-color="#D7613A"/>
<stop offset="0.59" stop-color="#DC8946"/>
<stop offset="1" stop-color="#F9C078"/>
</linearGradient>
<linearGradient id="paint3_linear_9065_10991" x1="39.8463" y1="22.3638" x2="178.057" y2="-21.385" gradientUnits="userSpaceOnUse">
<stop stop-color="#E0E0E3"/>
<stop offset="1" stop-color="white"/>
</linearGradient>
</defs>
</svg>
